<svg height="47" viewBox="0 0 184 47" width="184" xmlns="http://www.w3.org/2000/svg"><path d="m184 13.1904563c-1.131621-1.0378549-2.449857-1.822762-3.95343-2.3534396-1.505277-.5311048-2.979025-.7968709-4.422949-.7968709-1.204478 0-2.395747.1508287-3.574661.452486-1.179766.3025118-2.239382.7784979-3.177571 1.4300948-.93904.6520241-1.697005 1.4847862-2.274745 2.4987136s-.86661 2.2329476-.86661 3.6566332c0 1.1592015.186615 2.1432195.559846 2.9516269.372804.8088346.867036 1.4967499 1.480139 2.063746.614382.5674233 1.311845 1.0323003 2.094521 1.3937763.781824.3623306 1.582394.6759516 2.401286.9417177.841898.2653387 1.593898.5131592 2.256424.7421794.661674.2298749 1.214703.4828226 1.660364.7605524.445235.2777298.788641.585369 1.02894.9229175.240299.3384031.3613.7490159.3613 1.2314112 0 .50675-.096716.9412904-.28887 1.3036209-.19258.3623306-.451199.6515969-.776285.8690807-.325085.2166292-.703854.3747215-1.137159.4704315-.433305.0969918-.87854.145274-1.336131.145274-1.010619 0-2.028055-.2593569-3.050604-.7789252-1.023401-.5182865-1.847405-1.1643288-2.47329-1.9368449l-4.044181 4.1274921c1.131195 1.1827016 2.551686 2.0945099 4.26062 2.7337157 1.708935.6396331 3.477945.959236 5.307455.959236 1.25177 0 2.467325-.168347 3.646665-.5063228 1.17934-.3375485 2.227026-.8566896 3.141355-1.5569959.91433-.6998791 1.64247-1.5873326 2.18442-2.6610788.541099-1.0741734.812927-2.3474577.812927-3.8207074 0-1.2788389-.253081-2.3470305-.758817-3.2045746-.505309-.8562623-1.143124-1.5745143-1.913444-2.1539014-.770746-.5793871-1.624575-1.0438368-2.563616-1.3942036-.938614-.3495123-1.841014-.6699697-2.70805-.9596633-.601599-.193129-1.143124-.3798489-1.624574-.5614414-.482303-.180738-.897287-.3802762-1.246232-.5973327-.348518-.2170566-.613103-.4704316-.793327-.7601251-.181077-.2901208-.271828-.6515969-.271828-1.0861372 0-.5071773.114611-.923772.343832-1.2497841.22837-.3255847.510849-.5909235.84829-.7964436.336589-.2046655.715784-.3435304 1.137159-.4165947.42095-.0722097.835934-.1085282 1.246232-.1085282.794179 0 1.618609.1995382 2.472864.5981872.85468.3977946 1.546605.9357358 2.0762 1.6112601zm-28.921091 23.1374558h6.210281v-25.6361694h-6.210281zm-10.924656-16.1852381c-.277792.4101856-.634406.7242339-1.069416.9412904-.436287.2170565-.919442.3683124-1.451593.4524859-.532578.0846008-1.052373.1264739-1.560665.1264739h-2.938124v-5.9737543h3.301555c.458868 0 .93691.035464 1.432846.1085283.495936.0722097.942876.2110746 1.342522.4157401.398794.2059473.726009.4952136.97909.8695079.254359.3742943.381752.8626715.381752 1.4664133 0 .6511696-.139322 1.183129-.417967 1.5933145zm7.891947 16.1852381-6.679374-10.9711816c1.660789-.5071773 2.959852-1.3514759 3.899319-2.5350321.938189-1.1822744 1.407709-2.6431331 1.407709-4.3812944 0-1.4719679-.276514-2.7033791-.829969-3.6929518-.554306-.9895726-1.294376-1.7864435-2.220635-2.3901853-.927537-.6033146-1.973945-1.031873-3.141355-1.2852481-1.168262-.2538023-2.364645-.3802761-3.592555-.3802761h-9.748726v25.6361694h6.030056v-10.174738h2.103468l5.550737 10.174738zm-31.829816-16.1852381c-.277793.4101856-.634406.7242339-1.069842.9412904-.435435.2170565-.919016.3683124-1.451167.4524859-.532578.0846008-1.052799.1264739-1.560665.1264739h-2.93855v-5.9737543h3.301555c.459294 0 .937336.035464 1.433272.1085283.495936.0722097.943302.2110746 1.342522.4157401.398794.2059473.725583.4952136.97909.8695079.254359.3742943.381752.8626715.381752 1.4664133 0 .6511696-.139322 1.183129-.417967 1.5933145zm7.891521 16.1852381-6.678949-10.9711816c1.660364-.5071773 2.960279-1.3514759 3.89932-2.5350321.938189-1.1822744 1.407709-2.6431331 1.407709-4.3812944 0-1.4719679-.27694-2.7033791-.830395-3.6929518-.553454-.9895726-1.29395-1.7864435-2.220209-2.3901853-.927111-.6033146-1.973945-1.031873-3.141781-1.2852481-1.167836-.2538023-2.364219-.3802761-3.591703-.3802761h-9.749578v25.6361694h6.030056v-10.174738h2.104321l5.549884 10.174738zm-25.887103-9.6679879v-15.9681815h-6.1744909v15.4614314c0 .7003064-.0843603 1.363867-.2518027 1.9915363-.1691466.6276693-.4456609 1.1895381-.8308209 1.6834699-.3855862.4952135-.8849309.8870262-1.4984602 1.1767197-.6143814.2901209-1.3540251.4341131-2.2206353.4341131-.8661841 0-1.6066799-.1439922-2.2206353-.4341131-.6135293-.2896935-1.1073352-.6815062-1.4801395-1.1767197-.3736564-.4939318-.6501706-1.0558006-.8303949-1.6834699-.1802242-.6276693-.2709754-1.2912299-.2709754-1.9915363v-15.4614314h-6.1374235v15.9681815c0 1.5450322.2518026 2.9507723.7575383 4.218502.5053095 1.2673024 1.2279107 2.3534395 2.1669514 3.2588387.9381886.9049718 2.081313 1.6108328 3.4297994 2.1184374 1.3476342.5063228 2.864415.7601251 4.5490642.7601251 1.6612159 0 3.1716058-.2538023 4.5320219-.7601251 1.3595639-.5076046 2.521009-1.2134656 3.4834831-2.1184374.9624743-.9053992 1.7029703-1.9915363 2.2210613-3.2588387.516813-1.2677297.775859-2.6734698.775859-4.218502zm-24.480246-10.681488v-5.2866935h-20.6162895v5.2866935h7.2213254v20.3494759h6.1740648v-20.3494759zm-67.88531521 5.4059037 7.39302831-12.8417986h14.7532499l4.918034-8.5425413h-24.5893179l-12.31106231 21.3843399zm35.68226891 14.9615178-7.3934544-12.8417986 7.3768379-12.813171-4.918034-8.5425413-12.2948719 21.3557123 12.3114884 21.3843399zm-18.456155 10.6541423-7.376838-12.8127438h-14.7864827l-4.918034-8.5425412h24.5786663.0328068.0110776l12.294872 21.355285z" fill-rule="evenodd"/></svg>