<?xml version="1.0" encoding="UTF-8" standalone="no"?>
<!-- Created with Inkscape (http://www.inkscape.org/) -->

<svg
   xmlns:dc="http://purl.org/dc/elements/1.1/"
   xmlns:cc="http://creativecommons.org/ns#"
   xmlns:rdf="http://www.w3.org/1999/02/22-rdf-syntax-ns#"
   xmlns:svg="http://www.w3.org/2000/svg"
   xmlns="http://www.w3.org/2000/svg"
   xmlns:sodipodi="http://sodipodi.sourceforge.net/DTD/sodipodi-0.dtd"
   xmlns:inkscape="http://www.inkscape.org/namespaces/inkscape"
   width="250"
   height="250"
   viewBox="0 0 66.145832 66.145835"
   version="1.1"
   id="svg8"
   inkscape:version="0.92.3 (2405546, 2018-03-11)"
   sodipodi:docname="workflow-router.svg">
  <defs
     id="defs2" />
  <sodipodi:namedview
     id="base"
     pagecolor="#ffffff"
     bordercolor="#666666"
     borderopacity="1.0"
     inkscape:pageopacity="0.0"
     inkscape:pageshadow="2"
     inkscape:zoom="3.1928171"
     inkscape:cx="173.28489"
     inkscape:cy="135.23994"
     inkscape:document-units="mm"
     inkscape:current-layer="layer1"
     showgrid="false"
     units="px"
     inkscape:window-width="1920"
     inkscape:window-height="1080"
     inkscape:window-x="1920"
     inkscape:window-y="0"
     inkscape:window-maximized="0" />
  <metadata
     id="metadata5">
    <rdf:RDF>
      <cc:Work
         rdf:about="">
        <dc:format>image/svg+xml</dc:format>
        <dc:type
           rdf:resource="http://purl.org/dc/dcmitype/StillImage" />
        <dc:title></dc:title>
      </cc:Work>
    </rdf:RDF>
  </metadata>
  <g
     inkscape:label="Layer 1"
     inkscape:groupmode="layer"
     id="layer1"
     transform="translate(0,-230.85412)">
    <path
       id="path873"
       d="m 10.481497,263.97899 c -0.292397,-1.8004 -0.9820525,-3.0645 -1.7846335,-3.0645 -0.8025811,0 -1.492236,1.2641 -1.7846336,3.0645 z m -3.7205074,1.93551 c 0,0.44758 0.0242,0.877 0.066547,1.29032 h 3.7366394 c 0.04236,-0.41332 0.06656,-0.84274 0.06656,-1.29032 0,-0.4476 -0.0242,-0.87702 -0.06656,-1.29032 H 6.8275355 c -0.042349,0.4133 -0.066547,0.84272 -0.066546,1.29032 z m 6.5476904,-1.93551 c -0.576729,-1.36891 -1.744301,-2.4274 -3.186127,-2.85483 0.492036,0.68147 0.830813,1.70769 1.008267,2.85483 z m -6.0395234,-2.85483 c -1.4398061,0.42743 -2.6093967,1.48592 -3.184109,2.85483 h 2.1778581 c 0.1754385,-1.14714 0.5142167,-2.17336 1.0062509,-2.85483 z m 6.2552934,3.50002 h -2.312967 c 0.04234,0.4234 0.06654,0.85685 0.06654,1.29032 0,0.43346 -0.02419,0.86692 -0.06654,1.29032 h 2.31095 c 0.1109,-0.41332 0.173423,-0.84274 0.173423,-1.29032 0,-0.4476 -0.06254,-0.87702 -0.171406,-1.29032 z m -7.4087516,1.29032 c 0,-0.43347 0.0242,-0.86692 0.066547,-1.29032 H 3.8692782 c -0.1088929,0.4133 -0.173422,0.84272 -0.173422,1.29032 0,0.44758 0.06453,0.877 0.173422,1.29032 H 6.180228 c -0.040332,-0.4234 -0.06453,-0.85686 -0.06453,-1.29032 z m 0.7965315,1.93549 c 0.2923976,1.80041 0.9820525,3.0645 1.7846336,3.0645 0.802581,0 1.4922365,-1.26409 1.7846335,-3.0645 z m 3.2123401,2.85483 c 1.439809,-0.42742 2.609397,-1.48592 3.186126,-2.85483 h -2.177859 c -0.177455,1.14716 -0.516233,2.17337 -1.008267,2.85483 z m -6.0395224,-2.85483 c 0.576729,1.36891 1.7443029,2.42741 3.1861257,2.85483 -0.4920348,-0.68146 -0.8308124,-1.70767 -1.0082676,-2.85483 z"
       inkscape:connector-curvature="0"
       style="fill:currentColor;stroke-width:0.02016333" />
    <path
       id="path933"
       d="m 46.505342,277.50076 -0.164063,0.22689 c -0.135903,0.18794 -0.365112,0.25421 -0.511962,0.14802 l -3.988382,-2.88403 -0.492156,0.68061 c -0.219091,0.30299 -0.615466,0.24686 -0.627917,-0.0876 l -0.06605,-1.77525 c -0.0077,-0.20798 0.148084,-0.42345 0.347998,-0.48125 l 1.706573,-0.49346 c 0.320269,-0.0926 0.499907,0.26461 0.279901,0.56886 l -0.49215,0.68061 3.988382,2.88403 c 0.14685,0.10619 0.15572,0.34463 0.01982,0.53256 z m -3.847993,-6.06471 3.988381,2.88403 -0.49215,0.6806 c -0.218541,0.30223 -0.04241,0.66207 0.279903,0.56887 l 1.706556,-0.49344 c 0.199936,-0.0578 0.35575,-0.27331 0.348015,-0.48128 l -0.06605,-1.77524 c -0.01242,-0.33347 -0.40803,-0.39168 -0.627907,-0.0876 l -0.492162,0.68062 -3.988381,-2.88404 c -0.146851,-0.10618 -0.376066,-0.0399 -0.511974,0.14804 l -0.16404,0.22686 c -0.135909,0.18795 -0.127044,0.4264 0.01981,0.53259 z"
       inkscape:connector-curvature="0"
       style="fill:currentColor;stroke-width:0.01546711" />
    <path
       id="path983"
       d="m 38.750872,265.70257 v 1.50002 c 0,0.41422 -0.373091,0.74999 -0.833334,0.74999 h -8.333332 c -0.460245,0 -0.833334,-0.33577 -0.833334,-0.74999 v -1.50002 c 0,-0.41422 0.373089,-0.74999 0.833334,-0.74999 h 8.333332 c 0.460243,0 0.833334,0.33577 0.833334,0.74999 z m -0.833334,-1.25001 a 1.381198,1.243082 0 0 1 0.534324,0.0964 l -1.675817,-2.26237 a 0.83338549,0.75004926 0 0 0 -0.693385,-0.33397 h -4.663576 a 0.83333339,0.75000234 0 0 0 -0.693368,0.33397 l -1.675834,2.26237 a 1.381198,1.243082 0 0 1 0.534324,-0.0964 z m -0.833333,1.50001 c -0.306822,0 -0.555555,0.22386 -0.555555,0.50001 0,0.27615 0.248733,0.50001 0.555555,0.50001 0.306823,0 0.555556,-0.22386 0.555556,-0.50001 0,-0.27615 -0.248733,-0.50001 -0.555556,-0.50001 z m -1.666666,0 c -0.306823,0 -0.555556,0.22386 -0.555556,0.50001 0,0.27615 0.248733,0.50001 0.555556,0.50001 0.306822,0 0.555555,-0.22386 0.555555,-0.50001 0,-0.27615 -0.248733,-0.50001 -0.555555,-0.50001 z"
       inkscape:connector-curvature="0"
       style="fill:currentColor;stroke-width:0.01647023" />
    <path
       id="path1088"
       d="M 61.085936,286.12225 H 57.2975 c -0.01143,0.38691 -0.229846,0.62501 -0.511564,0.62501 h -0.95 c -0.292032,0 -0.515936,-0.34123 -0.512032,-0.62501 h -3.737968 c -0.1375,0 -0.25,0.14063 -0.25,0.3125 v 0.31251 c 0,0.68749 0.45,1.24999 1,1.24999 h 8 c 0.55,0 1,-0.5625 1,-1.24999 v -0.31251 c 0,-0.17187 -0.112501,-0.3125 -0.25,-0.3125 z m -0.75,-7.18749 c 0,-0.51564 -0.3375,-0.93751 -0.749999,-0.93751 h -6.5 c -0.412501,0 -0.750001,0.42187 -0.750001,0.93751 v 6.56249 h 8 z m -0.999999,5.31249 h -6 v -4.99999 h 6 z"
       inkscape:connector-curvature="0"
       style="fill:currentColor;stroke-width:0.01746928" />
    <path
       id="path1228"
       d="m 57.064839,240.60894 h -4.2 c -0.496874,0 -0.9,0.41991 -0.9,0.93751 v 8.12498 c 0,0.5176 0.403126,0.93751 0.9,0.93751 h 4.2 c 0.496874,0 0.9,-0.41991 0.9,-0.93751 v -8.12498 c 0,-0.5176 -0.403126,-0.93751 -0.9,-0.93751 z m -2.1,9.375 c -0.331874,0 -0.6,-0.2793 -0.6,-0.62499 0,-0.34571 0.268126,-0.62501 0.6,-0.62501 0.331874,0 0.6,0.2793 0.6,0.62501 0,0.34569 -0.268126,0.62499 -0.6,0.62499 z m 2.1,-2.10938 c 0,0.12876 -0.101257,0.23438 -0.225,0.23438 h -3.75 c -0.123743,0 -0.225,-0.10548 -0.225,-0.23438 v -6.09376 c 0,-0.12875 0.101257,-0.23435 0.225,-0.23435 h 3.75 c 0.123743,0 0.225,0.10547 0.225,0.23435 z"
       inkscape:connector-curvature="0"
       style="fill:currentColor;stroke-width:0.01913664" />
    <path
       id="path933-6"
       d="m 40.786652,257.67998 -0.210548,-0.18456 c -0.174409,-0.15289 -0.218954,-0.38729 -0.0995,-0.52356 l 3.244389,-3.70119 -0.631601,-0.55365 c -0.281168,-0.24647 -0.18822,-0.63586 0.145927,-0.61698 l 1.773645,0.10027 c 0.207792,0.0118 0.407746,0.18703 0.446597,0.39148 l 0.331702,1.74524 c 0.06221,0.32752 -0.310206,0.47297 -0.592547,0.22547 l -0.631595,-0.55364 -3.244389,3.70119 c -0.119457,0.13627 -0.357682,0.12281 -0.532083,-0.0301 z m 6.398003,-3.26396 -3.244389,3.70119 -0.631594,-0.55364 c -0.280461,-0.24585 -0.655202,-0.10414 -0.592548,0.22547 l 0.331679,1.74523 c 0.03888,0.20446 0.238842,0.37975 0.44662,0.39149 l 1.773645,0.10027 c 0.333162,0.0188 0.428119,-0.36961 0.145943,-0.61696 l -0.631609,-0.55366 3.244389,-3.70119 c 0.119457,-0.13627 0.07491,-0.37068 -0.09951,-0.52357 l -0.210519,-0.18454 c -0.174416,-0.15289 -0.412649,-0.16636 -0.532106,-0.0301 z"
       inkscape:connector-curvature="0"
       style="fill:currentColor;stroke-width:0.01546711" />
    <path
       id="path933-7"
       d="m 17.217075,264.63316 v -0.27999 c 0,-0.23193 0.146905,-0.41994 0.328125,-0.41994 h 4.921875 v -0.83991 c 0,-0.3739 0.354085,-0.56068 0.560148,-0.29696 l 1.09375,1.39985 c 0.128128,0.16401 0.128128,0.42991 0,0.59389 l -1.09375,1.39986 c -0.205283,0.26268 -0.560148,0.0785 -0.560148,-0.29696 v -0.8399 H 17.5452 c -0.18122,0 -0.328125,-0.18802 -0.328125,-0.41994 z m 6.671874,2.65969 h -4.921874 v -0.8399 c 0,-0.37296 -0.353583,-0.56135 -0.56015,-0.29696 l -1.09375,1.39983 c -0.128128,0.16402 -0.128128,0.42993 0,0.59392 l 1.09375,1.39985 c 0.20546,0.26294 0.56015,0.0783 0.56015,-0.29694 v -0.83992 h 4.921874 c 0.181222,0 0.328126,-0.18802 0.328126,-0.41996 v -0.27995 c 0,-0.23194 -0.146904,-0.41997 -0.328126,-0.41997 z"
       inkscape:connector-curvature="0"
       style="fill:currentColor;stroke-width:0.01546711" />
  </g>
</svg>
