<?xml version="1.0" encoding="UTF-8" standalone="no"?>
<!-- Created with Inkscape (http://www.inkscape.org/) -->

<svg
   xmlns:dc="http://purl.org/dc/elements/1.1/"
   xmlns:cc="http://creativecommons.org/ns#"
   xmlns:rdf="http://www.w3.org/1999/02/22-rdf-syntax-ns#"
   xmlns:svg="http://www.w3.org/2000/svg"
   xmlns="http://www.w3.org/2000/svg"
   xmlns:sodipodi="http://sodipodi.sourceforge.net/DTD/sodipodi-0.dtd"
   xmlns:inkscape="http://www.inkscape.org/namespaces/inkscape"
   width="250"
   height="250"
   viewBox="0 0 66.145832 66.145835"
   version="1.1"
   id="svg8"
   inkscape:version="0.92.3 (2405546, 2018-03-11)"
   sodipodi:docname="workflow-local-server.svg">
  <defs
     id="defs2" />
  <sodipodi:namedview
     id="base"
     pagecolor="#ffffff"
     bordercolor="#666666"
     borderopacity="1.0"
     inkscape:pageopacity="0.0"
     inkscape:pageshadow="2"
     inkscape:zoom="0.79820428"
     inkscape:cx="-36.622344"
     inkscape:cy="-70.996226"
     inkscape:document-units="mm"
     inkscape:current-layer="layer1"
     showgrid="false"
     units="px"
     inkscape:window-width="1916"
     inkscape:window-height="1041"
     inkscape:window-x="1920"
     inkscape:window-y="37"
     inkscape:window-maximized="0" />
  <metadata
     id="metadata5">
    <rdf:RDF>
      <cc:Work
         rdf:about="">
        <dc:format>image/svg+xml</dc:format>
        <dc:type
           rdf:resource="http://purl.org/dc/dcmitype/StillImage" />
        <dc:title />
      </cc:Work>
    </rdf:RDF>
  </metadata>
  <g
     inkscape:label="Layer 1"
     inkscape:groupmode="layer"
     id="layer1"
     transform="translate(0,-230.85412)">
    <path
       id="path933"
       d="m 24.889718,260.39199 -0.164063,0.22689 c -0.135903,0.18794 -0.365112,0.25421 -0.511962,0.14802 l -3.988382,-2.88403 -0.492156,0.68061 c -0.219091,0.30299 -0.615466,0.24686 -0.627917,-0.0876 l -0.06605,-1.77525 c -0.0077,-0.20798 0.148084,-0.42345 0.347998,-0.48125 l 1.706573,-0.49346 c 0.320269,-0.0926 0.499907,0.26461 0.279901,0.56886 l -0.49215,0.68061 3.988382,2.88403 c 0.14685,0.10619 0.15572,0.34463 0.01982,0.53256 z m -3.847993,-6.06471 3.988381,2.88403 -0.49215,0.6806 c -0.218541,0.30223 -0.04241,0.66207 0.279903,0.56887 l 1.706556,-0.49344 c 0.199936,-0.0578 0.35575,-0.27331 0.348015,-0.48128 l -0.06605,-1.77524 c -0.01242,-0.33347 -0.40803,-0.39168 -0.627907,-0.0876 l -0.492162,0.68062 -3.988381,-2.88404 c -0.146851,-0.10618 -0.376066,-0.0399 -0.511974,0.14804 l -0.16404,0.22686 c -0.135909,0.18795 -0.127044,0.4264 0.01981,0.53259 z"
       inkscape:connector-curvature="0"
       style="fill:currentColor;stroke-width:0.01546711" />
    <path
       id="path983"
       d="m 38.750872,265.70257 v 1.50002 c 0,0.41422 -0.373091,0.74999 -0.833334,0.74999 h -8.333332 c -0.460245,0 -0.833334,-0.33577 -0.833334,-0.74999 v -1.50002 c 0,-0.41422 0.373089,-0.74999 0.833334,-0.74999 h 8.333332 c 0.460243,0 0.833334,0.33577 0.833334,0.74999 z m -0.833334,-1.25001 a 1.381198,1.243082 0 0 1 0.534324,0.0964 l -1.675817,-2.26237 a 0.83338549,0.75004926 0 0 0 -0.693385,-0.33397 h -4.663576 a 0.83333339,0.75000234 0 0 0 -0.693368,0.33397 l -1.675834,2.26237 a 1.381198,1.243082 0 0 1 0.534324,-0.0964 z m -0.833333,1.50001 c -0.306822,0 -0.555555,0.22386 -0.555555,0.50001 0,0.27615 0.248733,0.50001 0.555555,0.50001 0.306823,0 0.555556,-0.22386 0.555556,-0.50001 0,-0.27615 -0.248733,-0.50001 -0.555556,-0.50001 z m -1.666666,0 c -0.306823,0 -0.555556,0.22386 -0.555556,0.50001 0,0.27615 0.248733,0.50001 0.555556,0.50001 0.306822,0 0.555555,-0.22386 0.555555,-0.50001 0,-0.27615 -0.248733,-0.50001 -0.555555,-0.50001 z"
       inkscape:connector-curvature="0"
       style="fill:currentColor;stroke-width:0.01647023" />
    <path
       id="path1088"
       d="m 18.969884,287.9643 h -3.788436 c -0.01143,0.38691 -0.229846,0.62501 -0.511564,0.62501 h -0.95 c -0.292032,0 -0.515936,-0.34123 -0.512032,-0.62501 H 9.4698838 c -0.1375,0 -0.25,0.14063 -0.25,0.3125 v 0.31251 c 0,0.68749 0.45,1.24999 1.0000002,1.24999 h 8 c 0.55,0 1,-0.5625 1,-1.24999 v -0.31251 c 0,-0.17187 -0.112501,-0.3125 -0.25,-0.3125 z m -0.75,-7.18749 c 0,-0.51564 -0.3375,-0.93751 -0.749999,-0.93751 h -6.5 c -0.412501,0 -0.750001,0.42187 -0.750001,0.93751 v 6.56249 h 8 z m -0.999999,5.31249 h -6 v -4.99999 h 6 z"
       inkscape:connector-curvature="0"
       style="fill:currentColor;stroke-width:0.01746928" />
    <path
       id="path1228"
       d="m 15.72656,241.38671 h -4.200001 c -0.496874,0 -0.9,0.41991 -0.9,0.93751 v 8.12498 c 0,0.5176 0.403126,0.93751 0.9,0.93751 h 4.200001 c 0.496874,0 0.9,-0.41991 0.9,-0.93751 v -8.12498 c 0,-0.5176 -0.403126,-0.93751 -0.9,-0.93751 z m -2.1,9.375 c -0.331874,0 -0.6,-0.2793 -0.6,-0.62499 0,-0.34571 0.268126,-0.62501 0.6,-0.62501 0.331874,0 0.6,0.2793 0.6,0.62501 0,0.34569 -0.268126,0.62499 -0.6,0.62499 z m 2.1,-2.10938 c 0,0.12876 -0.101257,0.23438 -0.225,0.23438 h -3.750001 c -0.123743,0 -0.225,-0.10548 -0.225,-0.23438 v -6.09376 c 0,-0.12875 0.101257,-0.23435 0.225,-0.23435 h 3.750001 c 0.123743,0 0.225,0.10547 0.225,0.23435 z"
       inkscape:connector-curvature="0"
       style="fill:currentColor;stroke-width:0.01913664" />
    <path
       id="path933-6"
       d="m 19.094111,276.15961 -0.210548,-0.18456 c -0.174409,-0.15289 -0.218954,-0.38729 -0.0995,-0.52356 l 3.244389,-3.70119 -0.631601,-0.55365 c -0.281168,-0.24647 -0.18822,-0.63586 0.145927,-0.61698 l 1.773645,0.10027 c 0.207792,0.0118 0.407746,0.18703 0.446597,0.39148 l 0.331702,1.74524 c 0.06221,0.32752 -0.310206,0.47297 -0.592547,0.22547 l -0.631595,-0.55364 -3.244389,3.70119 c -0.119457,0.13627 -0.357682,0.12281 -0.532083,-0.0301 z m 6.398003,-3.26396 -3.244389,3.70119 -0.631594,-0.55364 c -0.280461,-0.24585 -0.655202,-0.10414 -0.592548,0.22547 l 0.331679,1.74523 c 0.03888,0.20446 0.238842,0.37975 0.44662,0.39149 l 1.773645,0.10027 c 0.333162,0.0188 0.428119,-0.36961 0.145943,-0.61696 l -0.631609,-0.55366 3.244389,-3.70119 c 0.119457,-0.13627 0.07491,-0.37068 -0.09951,-0.52357 l -0.210519,-0.18454 c -0.174416,-0.15289 -0.412649,-0.16636 -0.532106,-0.0301 z"
       inkscape:connector-curvature="0"
       style="fill:currentColor;stroke-width:0.01546711" />
    <path
       id="path851"
       d="m 46.180067,262.89062 v 1.04577 H 42.36942 v -1.04577 c 0,-0.48548 -0.403922,-0.72861 -0.640172,-0.38533 l -1.344668,1.95398 c -0.146449,0.21281 -0.146449,0.55781 0,0.77063 l 1.344668,1.95398 c 0.236234,0.34328 0.640172,0.10015 0.640172,-0.38533 v -1.04575 h 3.810647 v 1.04577 c 0,0.48548 0.403921,0.72861 0.640171,0.38533 l 1.344669,-1.95398 c 0.146449,-0.21281 0.146449,-0.55782 0,-0.77063 l -1.344669,-1.95398 c -0.236234,-0.3433 -0.640171,-0.10017 -0.640171,0.38531 z"
       inkscape:connector-curvature="0"
       style="stroke-width:0.01883524" />
    <path
       id="path901"
       d="m 59.469755,261.17469 v 0.89286 c 0,0.78683 -2.239575,1.42857 -5,1.42857 -2.760424,0 -5,-0.64174 -5,-1.42857 v -0.89286 c 0,-0.78683 2.239576,-1.42857 5,-1.42857 2.760425,0 5,0.64174 5,1.42857 z m 0,2.00893 v 2.00893 c 0,0.78683 -2.239575,1.42857 -5,1.42857 -2.760424,0 -5,-0.64174 -5,-1.42857 v -2.00893 c 1.074219,0.64732 3.040357,0.94867 5,0.94867 1.959643,0 3.925759,-0.30135 5,-0.94867 z m 0,3.125 v 2.00893 c 0,0.78683 -2.239575,1.42857 -5,1.42857 -2.760424,0 -5,-0.64174 -5,-1.42857 v -2.00893 c 1.074219,0.64732 3.040357,0.94867 5,0.94867 1.959643,0 3.925759,-0.30135 5,-0.94867 z"
       inkscape:connector-curvature="0"
       style="stroke-width:0.02087978" />
  </g>
</svg>
